<svg xmlns="http://www.w3.org/2000/svg" width="800" height="400" viewBox="0 0 800 400">
  <g fill="none" stroke="#5cb85c" stroke-width="2">
    <path d="M20,0 C50,100 150,200 350,150 C550,100 600,50 650,50 C700,50 750,100 800,150"/>
    <path d="M40,0 C70,110 170,210 370,160 C570,110 620,60 670,60 C720,60 770,110 820,160"/>
    <path d="M60,0 C90,120 190,220 390,170 C590,120 640,70 690,70 C740,70 790,120 840,170"/>
    <path d="M80,0 C110,130 210,230 410,180 C610,130 660,80 710,80 C760,80 810,130 860,180"/>
    <path d="M100,0 C130,140 230,240 430,190 C630,140 680,90 730,90 C780,90 830,140 880,190"/>
    <path d="M120,0 C150,150 250,250 450,200 C650,150 700,100 750,100 C800,100 850,150 900,200"/>
    <path d="M140,0 C170,160 270,260 470,210 C670,160 720,110 770,110 C820,110 870,160 920,210"/>
    <path d="M160,0 C190,170 290,270 490,220 C690,170 740,120 790,120 C840,120 890,170 940,220"/>
    <path d="M180,0 C210,180 310,280 510,230 C710,180 760,130 810,130 C860,130 910,180 960,230"/>
    <path d="M200,0 C230,190 330,290 530,240 C730,190 780,140 830,140 C880,140 930,190 980,240"/>
    <path d="M220,0 C250,200 350,300 550,250 C750,200 800,150 850,150 C900,150 950,200 1000,250"/>
    <path d="M240,0 C270,210 370,310 570,260 C770,210 820,160 870,160 C920,160 970,210 1020,260"/>
    <path d="M260,0 C290,220 390,320 590,270 C790,220 840,170 890,170 C940,170 990,220 1040,270"/>
    <path d="M280,0 C310,230 410,330 610,280 C810,230 860,180 910,180 C960,180 1010,230 1060,280"/>
    <path d="M300,0 C330,240 430,340 630,290 C830,240 880,190 930,190 C980,190 1030,240 1080,290"/>
  </g>
</svg>